<svg xmlns="http://www.w3.org/2000/svg" viewBox="0 0 480 360" role="img" aria-label="FAKE NEWS UND KI-FAKES">
  <rect width="480" height="360" rx="28" fill="#fdeads"/>
  <circle cx="76" cy="72" r="42" fill="#f6cf8b"/>
  <circle cx="414" cy="292" r="52" fill="#f6cf8b" opacity="0.65"/>

  <g transform="translate(145 24)">
    <rect x="0" y="0" width="190" height="312" rx="30" fill="#000000"/>
    <rect x="12" y="18" width="166" height="276" rx="22" fill="#ffffff"/>
    <rect x="64" y="8" width="62" height="7" rx="4" fill="#c6c7c8"/>

    <rect x="28" y="42" width="134" height="42" rx="16" fill="#b45309"/>
    <text x="95" y="69" font-size="16" font-family="Arial, sans-serif" font-weight="700" text-anchor="middle" fill="#ffffff">ECHT ODER FAKE?</text>

    <g transform="translate(35 100)">
      <rect x="0" y="0" width="120" height="78" rx="14" fill="#fdeads" stroke="#b45309" stroke-width="4"/>
      <circle cx="36" cy="32" r="14" fill="#f6cf8b"/>
      <path d="M14 64 L44 40 L66 56 L86 36 L106 64 Z" fill="#b45309" opacity="0.7"/>
      <text x="60" y="-8" font-size="16" font-family="Arial, sans-serif" font-weight="700" text-anchor="middle" fill="#b45309">?</text>
    </g>

    <rect x="30" y="200" width="130" height="12" rx="6" fill="#f6cf8b"/>
    <rect x="30" y="222" width="106" height="12" rx="6" fill="#fdeads"/>
    <rect x="30" y="244" width="122" height="12" rx="6" fill="#fdeads"/>
  </g>

  <g opacity="0.98">
    <g>
      <rect x="92" y="210" width="296" height="42" rx="14" fill="#ffffff" stroke="#f6cf8b" stroke-width="2"/>
      <circle cx="116" cy="231" r="7" fill="#b45309"/>
      <text x="136" y="237" font-size="18" font-family="Arial, sans-serif" font-weight="700" fill="#000000">Nicht alles ist wahr</text>
    </g>
    <g>
      <rect x="92" y="266" width="296" height="42" rx="14" fill="#ffffff" stroke="#f6cf8b" stroke-width="2"/>
      <circle cx="116" cy="287" r="7" fill="#b45309"/>
      <text x="136" y="293" font-size="18" font-family="Arial, sans-serif" font-weight="700" fill="#000000">Bilder können Fakes sein</text>
    </g>
    <g>
      <rect x="92" y="322" width="296" height="42" rx="14" fill="#ffffff" stroke="#f6cf8b" stroke-width="2"/>
      <circle cx="116" cy="343" r="7" fill="#b45309"/>
      <text x="136" y="349" font-size="18" font-family="Arial, sans-serif" font-weight="700" fill="#000000">Erst prüfen, dann teilen</text>
    </g>
  </g>
</svg>
