<svg xmlns="http://www.w3.org/2000/svg" viewBox="0 0 480 360" role="img" aria-label="DATEN SCHÜTZEN">
  <rect width="480" height="360" rx="28" fill="#d8eaf2"/>
  <circle cx="76" cy="72" r="42" fill="#aad1e3"/>
  <circle cx="414" cy="292" r="52" fill="#aad1e3" opacity="0.65"/>

  <g transform="translate(145 24)">
    <rect x="0" y="0" width="190" height="312" rx="30" fill="#000000"/>
    <rect x="12" y="18" width="166" height="276" rx="22" fill="#ffffff"/>
    <rect x="64" y="8" width="62" height="7" rx="4" fill="#c6c7c8"/>

    <rect x="28" y="42" width="134" height="42" rx="16" fill="#b5152b"/>
    <text x="95" y="69" font-size="16" font-family="Arial, sans-serif" font-weight="700" text-anchor="middle" fill="#ffffff">DATEN SCHÜTZEN</text>

    <circle cx="95" cy="128" r="42" fill="#d8eaf2" stroke="#b5152b" stroke-width="4"/>
    <text x="95" y="143" font-size="44" font-family="Arial, sans-serif" text-anchor="middle" fill="#000000">🔒</text>

    <rect x="30" y="192" width="130" height="12" rx="6" fill="#aad1e3"/>
    <rect x="30" y="214" width="106" height="12" rx="6" fill="#d8eaf2"/>
    <rect x="30" y="236" width="122" height="12" rx="6" fill="#d8eaf2"/>
  </g>

  <g opacity="0.98">
    
        <g>
          <rect x="92" y="210" width="296" height="42" rx="14" fill="#ffffff" stroke="#aad1e3" stroke-width="2"/>
          <circle cx="116" cy="231" r="7" fill="#b5152b"/>
          <text x="136" y="237" font-size="18" font-family="Arial, sans-serif" font-weight="700" fill="#000000">Name</text>
        </g>
        <g>
          <rect x="92" y="266" width="296" height="42" rx="14" fill="#ffffff" stroke="#aad1e3" stroke-width="2"/>
          <circle cx="116" cy="287" r="7" fill="#b5152b"/>
          <text x="136" y="293" font-size="18" font-family="Arial, sans-serif" font-weight="700" fill="#000000">Adresse</text>
        </g>
        <g>
          <rect x="92" y="322" width="296" height="42" rx="14" fill="#ffffff" stroke="#aad1e3" stroke-width="2"/>
          <circle cx="116" cy="343" r="7" fill="#b5152b"/>
          <text x="136" y="349" font-size="18" font-family="Arial, sans-serif" font-weight="700" fill="#000000">Passwort</text>
        </g>
  </g>
</svg>