<svg xmlns="http://www.w3.org/2000/svg" viewBox="0 0 480 360" role="img" aria-label="ONLINE-BETRUG ERKENNEN">
  <rect width="480" height="360" rx="28" fill="#fde2e2"/>
  <circle cx="76" cy="72" r="42" fill="#f4b6b6"/>
  <circle cx="414" cy="292" r="52" fill="#f4b6b6" opacity="0.65"/>

  <g transform="translate(145 24)">
    <rect x="0" y="0" width="190" height="312" rx="30" fill="#000000"/>
    <rect x="12" y="18" width="166" height="276" rx="22" fill="#ffffff"/>
    <rect x="64" y="8" width="62" height="7" rx="4" fill="#c6c7c8"/>

    <rect x="28" y="42" width="134" height="42" rx="16" fill="#b91c1c"/>
    <text x="95" y="69" font-size="16" font-family="Arial, sans-serif" font-weight="700" text-anchor="middle" fill="#ffffff">STOPP! BETRUG?</text>

    <g transform="translate(50 96)">
      <path d="M45 0 L90 78 L0 78 Z" fill="#fde2e2" stroke="#b91c1c" stroke-width="5" stroke-linejoin="round"/>
      <rect x="41" y="26" width="8" height="28" rx="4" fill="#b91c1c"/>
      <circle cx="45" cy="64" r="5" fill="#b91c1c"/>
    </g>

    <rect x="30" y="200" width="130" height="12" rx="6" fill="#f4b6b6"/>
    <rect x="30" y="222" width="106" height="12" rx="6" fill="#fde2e2"/>
    <rect x="30" y="244" width="122" height="12" rx="6" fill="#fde2e2"/>
  </g>

  <g opacity="0.98">
    <g>
      <rect x="92" y="210" width="296" height="42" rx="14" fill="#ffffff" stroke="#f4b6b6" stroke-width="2"/>
      <circle cx="116" cy="231" r="7" fill="#b91c1c"/>
      <text x="136" y="237" font-size="18" font-family="Arial, sans-serif" font-weight="700" fill="#000000">Druck ist ein Warnzeichen</text>
    </g>
    <g>
      <rect x="92" y="266" width="296" height="42" rx="14" fill="#ffffff" stroke="#f4b6b6" stroke-width="2"/>
      <circle cx="116" cy="287" r="7" fill="#b91c1c"/>
      <text x="136" y="293" font-size="18" font-family="Arial, sans-serif" font-weight="700" fill="#000000">Keine Codes weitergeben</text>
    </g>
    <g>
      <rect x="92" y="322" width="296" height="42" rx="14" fill="#ffffff" stroke="#f4b6b6" stroke-width="2"/>
      <circle cx="116" cy="343" r="7" fill="#b91c1c"/>
      <text x="136" y="349" font-size="18" font-family="Arial, sans-serif" font-weight="700" fill="#000000">Hilfe holen ist stark</text>
    </g>
  </g>
</svg>
