<svg xmlns="http://www.w3.org/2000/svg" viewBox="0 0 480 360" role="img" aria-label="KI UND CHATBOTS">
  <rect width="480" height="360" rx="28" fill="#ece4f7"/>
  <circle cx="76" cy="72" r="42" fill="#cdb9ec"/>
  <circle cx="414" cy="292" r="52" fill="#cdb9ec" opacity="0.65"/>

  <g transform="translate(145 24)">
    <rect x="0" y="0" width="190" height="312" rx="30" fill="#000000"/>
    <rect x="12" y="18" width="166" height="276" rx="22" fill="#ffffff"/>
    <rect x="64" y="8" width="62" height="7" rx="4" fill="#c6c7c8"/>

    <rect x="28" y="42" width="134" height="42" rx="16" fill="#6b3fa0"/>
    <text x="95" y="69" font-size="15" font-family="Arial, sans-serif" font-weight="700" text-anchor="middle" fill="#ffffff">KI &amp; CHATBOTS</text>

    <g transform="translate(53 100)">
      <rect x="0" y="0" width="84" height="64" rx="18" fill="#ece4f7" stroke="#6b3fa0" stroke-width="4"/>
      <circle cx="26" cy="28" r="7" fill="#6b3fa0"/>
      <circle cx="58" cy="28" r="7" fill="#6b3fa0"/>
      <rect x="24" y="44" width="36" height="6" rx="3" fill="#6b3fa0"/>
      <rect x="38" y="-14" width="8" height="14" rx="4" fill="#6b3fa0"/>
    </g>

    <rect x="30" y="192" width="130" height="12" rx="6" fill="#cdb9ec"/>
    <rect x="30" y="214" width="106" height="12" rx="6" fill="#ece4f7"/>
    <rect x="30" y="236" width="122" height="12" rx="6" fill="#ece4f7"/>
  </g>

  <g opacity="0.98">
    <g>
      <rect x="92" y="210" width="296" height="42" rx="14" fill="#ffffff" stroke="#cdb9ec" stroke-width="2"/>
      <circle cx="116" cy="231" r="7" fill="#6b3fa0"/>
      <text x="136" y="237" font-size="18" font-family="Arial, sans-serif" font-weight="700" fill="#000000">KI ist ein Programm</text>
    </g>
    <g>
      <rect x="92" y="266" width="296" height="42" rx="14" fill="#ffffff" stroke="#cdb9ec" stroke-width="2"/>
      <circle cx="116" cy="287" r="7" fill="#6b3fa0"/>
      <text x="136" y="293" font-size="18" font-family="Arial, sans-serif" font-weight="700" fill="#000000">KI kann Fehler machen</text>
    </g>
    <g>
      <rect x="92" y="322" width="296" height="42" rx="14" fill="#ffffff" stroke="#cdb9ec" stroke-width="2"/>
      <circle cx="116" cy="343" r="7" fill="#6b3fa0"/>
      <text x="136" y="349" font-size="18" font-family="Arial, sans-serif" font-weight="700" fill="#000000">Erst prüfen</text>
    </g>
  </g>
</svg>
