<svg xmlns="http://www.w3.org/2000/svg" viewBox="0 0 480 220" role="img" aria-hidden="true">
  <rect width="480" height="220" rx="24" fill="#e8f8ee"/>
  <ellipse cx="240" cy="194" rx="150" ry="10" fill="#16222e" opacity="0.06"/>
  <g fill="none" stroke="#15803d" stroke-width="10" stroke-linecap="round" stroke-linejoin="round">
    <path d="M112 50h26l18 84h90l18-66H148"/>
  </g>
  <rect x="168" y="76" width="24" height="30" rx="5" fill="#0e7490"/>
  <rect x="198" y="66" width="22" height="40" rx="5" fill="#b45309"/>
  <rect x="226" y="80" width="24" height="26" rx="5" fill="#6b3fa0"/>
  <circle cx="174" cy="164" r="12" fill="#15803d"/>
  <circle cx="174" cy="164" r="4.5" fill="#ffffff"/>
  <circle cx="238" cy="164" r="12" fill="#15803d"/>
  <circle cx="238" cy="164" r="4.5" fill="#ffffff"/>
  <rect x="296" y="84" width="104" height="66" rx="10" fill="#ffffff" stroke="#15803d" stroke-width="5"/>
  <rect x="296" y="99" width="104" height="14" fill="#15803d"/>
  <rect x="310" y="124" width="46" height="10" rx="5" fill="#aee3c3"/>
  <circle cx="380" cy="130" r="8" fill="#15803d" opacity="0.4"/>
  <circle cx="348" cy="56" r="18" fill="#15803d"/>
  <path d="M339 56l6 6 12-13" fill="none" stroke="#ffffff" stroke-width="5" stroke-linecap="round" stroke-linejoin="round"/>
</svg>
