<svg xmlns="http://www.w3.org/2000/svg" viewBox="0 0 480 220" role="img" aria-hidden="true">
  <rect width="480" height="220" rx="24" fill="#e3f5fa"/>
  <ellipse cx="240" cy="194" rx="140" ry="10" fill="#16222e" opacity="0.06"/>
  <rect x="118" y="36" width="244" height="148" rx="14" fill="#ffffff" stroke="#0e7490" stroke-width="5"/>
  <rect x="118" y="36" width="244" height="32" rx="14" fill="#0e7490"/>
  <rect x="118" y="52" width="244" height="16" fill="#0e7490"/>
  <rect x="136" y="84" width="96" height="70" rx="8" fill="#d2ecf4"/>
  <circle cx="160" cy="104" r="9" fill="#ffd54d"/>
  <path d="M136 154l30-28c3-3 8-3 11 0l16 15 12-11c3-3 8-3 11 0l16 16v2a6 6 0 0 1-6 6h-84a6 6 0 0 1-6-6z" fill="#0e7490" opacity="0.65"/>
  <rect x="250" y="88" width="96" height="11" rx="5.5" fill="#a5dbe8"/>
  <rect x="250" y="112" width="76" height="11" rx="5.5" fill="#d2ecf4" stroke="#a5dbe8"/>
  <rect x="250" y="136" width="86" height="11" rx="5.5" fill="#d2ecf4" stroke="#a5dbe8"/>
  <rect x="136" y="164" width="120" height="8" rx="4" fill="#a5dbe8"/>
</svg>
