<svg xmlns="http://www.w3.org/2000/svg" viewBox="0 0 480 220" role="img" aria-hidden="true">
  <rect width="480" height="220" rx="24" fill="#e6f0f9"/>
  <circle cx="64" cy="50" r="34" fill="#bcd6ea" opacity="0.55"/>
  <circle cx="424" cy="178" r="44" fill="#bcd6ea" opacity="0.4"/>
  <ellipse cx="240" cy="196" rx="150" ry="12" fill="#16222e" opacity="0.07"/>
  <rect x="100" y="44" width="280" height="120" rx="18" fill="#ffffff" stroke="#00528f" stroke-width="5"/>
  <rect x="100" y="44" width="280" height="36" rx="17" fill="#dce9f5"/>
  <rect x="100" y="62" width="280" height="18" fill="#dce9f5"/>
  <circle cx="124" cy="62" r="6" fill="#e8615a"/>
  <circle cx="144" cy="62" r="6" fill="#ffb703"/>
  <circle cx="164" cy="62" r="6" fill="#34a853"/>
  <rect x="184" y="52" width="180" height="20" rx="10" fill="#ffffff" stroke="#bcd6ea"/>
  <rect x="194" y="59" width="110" height="7" rx="3.5" fill="#bcd6ea"/>
  <g stroke="#00528f" stroke-width="9" stroke-linecap="round" fill="none">
    <path d="M204 118a18 18 0 0 1 0-26l14-14a18 18 0 0 1 26 26l-6 6"/>
    <path d="M236 104a18 18 0 0 1 0 26l-14 14a18 18 0 0 1-26-26l6-6"/>
  </g>
  <path d="M296 120l16 44 10-17 19 12 8-13-19-12 16-12z" fill="#16222e"/>
  <path d="M352 96l30 52h-60l30-52z" fill="#ffb703" stroke="#b45309" stroke-width="5" stroke-linejoin="round"/>
  <rect x="348" y="114" width="8" height="18" rx="4" fill="#7a3b00"/>
  <circle cx="352" cy="140" r="4" fill="#7a3b00"/>
</svg>
