<svg xmlns="http://www.w3.org/2000/svg" viewBox="0 0 480 220" role="img" aria-hidden="true">
  <rect width="480" height="220" rx="24" fill="#e6f0f9"/>
  <ellipse cx="240" cy="192" rx="150" ry="10" fill="#16222e" opacity="0.06"/>
  <rect x="100" y="42" width="280" height="124" rx="16" fill="#ffffff" stroke="#00528f" stroke-width="5"/>
  <rect x="100" y="42" width="280" height="34" rx="16" fill="#dce9f5"/>
  <rect x="100" y="59" width="280" height="17" fill="#dce9f5"/>
  <circle cx="124" cy="59" r="5.5" fill="#9fb6c9"/>
  <circle cx="143" cy="59" r="5.5" fill="#9fb6c9"/>
  <circle cx="162" cy="59" r="5.5" fill="#9fb6c9"/>
  <rect x="180" y="49" width="184" height="20" rx="10" fill="#ffffff" stroke="#bcd6ea"/>
  <rect x="190" y="56" width="112" height="7" rx="3.5" fill="#bcd6ea"/>
  <g stroke="#00528f" stroke-width="9" stroke-linecap="round" fill="none">
    <path d="M206 122a17 17 0 0 1 0-24l13-13a17 17 0 0 1 24 24l-5 5"/>
    <path d="M236 108a17 17 0 0 1 0 24l-13 13a17 17 0 0 1-24-24l5-5"/>
  </g>
  <path d="M296 118l15 42 9-16 18 11 8-12-18-11 15-12z" fill="#16222e"/>
  <path d="M354 96l28 48h-56l28-48z" fill="#ffb703" stroke="#b45309" stroke-width="5" stroke-linejoin="round"/>
  <rect x="350" y="112" width="8" height="17" rx="4" fill="#7a3b00"/>
  <circle cx="354" cy="136" r="4" fill="#7a3b00"/>
</svg>
