<svg xmlns="http://www.w3.org/2000/svg" viewBox="0 0 480 220" role="img" aria-hidden="true">
  <rect width="480" height="220" rx="24" fill="#fff0e8"/>
  <circle cx="64" cy="50" r="34" fill="#f5c5a8" opacity="0.5"/>
  <circle cx="424" cy="178" r="44" fill="#f5c5a8" opacity="0.4"/>
  <ellipse cx="240" cy="198" rx="140" ry="12" fill="#16222e" opacity="0.07"/>
  <path d="M150 100l130-52v124l-130-52v-20z" fill="#c9541c"/>
  <path d="M150 100l130-52v32l-130 40z" fill="#a23f12"/>
  <rect x="118" y="92" width="40" height="40" rx="10" fill="#7c2d0c"/>
  <path d="M142 132l16 56h26l-18-58" fill="#7c2d0c"/>
  <circle cx="280" cy="110" r="10" fill="#7c2d0c"/>
  <path d="M312 86c14 8 22 16 22 24s-8 16-22 24" fill="none" stroke="#c9541c" stroke-width="8" stroke-linecap="round"/>
  <path d="M338 64c24 14 38 30 38 46s-14 32-38 46" fill="none" stroke="#f0935e" stroke-width="8" stroke-linecap="round"/>
  <path d="M362 40l6 12 12 6-12 6-6 12-6-12-12-6 12-6 6-12z" fill="#ffb703"/>
</svg>
