<svg xmlns="http://www.w3.org/2000/svg" viewBox="0 0 480 220" role="img" aria-hidden="true">
  <rect width="480" height="220" rx="24" fill="#fdecec"/>
  <ellipse cx="240" cy="194" rx="140" ry="10" fill="#16222e" opacity="0.06"/>
  <rect x="146" y="34" width="116" height="160" rx="18" fill="#16222e"/>
  <rect x="154" y="46" width="100" height="136" rx="11" fill="#ffffff"/>
  <rect x="186" y="38" width="36" height="6" rx="3" fill="#5a6b7b"/>
  <rect x="166" y="62" width="76" height="11" rx="5.5" fill="#f4b6b6"/>
  <rect x="166" y="83" width="56" height="11" rx="5.5" fill="#fdecec" stroke="#f4b6b6"/>
  <path d="M304 24v50" stroke="#6e7b88" stroke-width="5" stroke-linecap="round"/>
  <path d="M304 74c0 16-13 20-13 31 0 8 6 13 13 13s13-5 13-13" fill="none" stroke="#6e7b88" stroke-width="7" stroke-linecap="round"/>
  <rect x="246" y="116" width="92" height="58" rx="9" fill="#0e7490"/>
  <rect x="246" y="129" width="92" height="13" fill="#16222e" opacity="0.35"/>
  <rect x="257" y="152" width="42" height="9" rx="4.5" fill="#ffffff" opacity="0.85"/>
  <circle cx="318" cy="156" r="8" fill="#a5dbe8"/>
  <path d="M380 92l32 54h-64l32-54z" fill="#b91c1c"/>
  <rect x="376" y="111" width="9" height="20" rx="4.5" fill="#ffffff"/>
  <circle cx="380.5" cy="139" r="4.5" fill="#ffffff"/>
</svg>
