<svg xmlns="http://www.w3.org/2000/svg" viewBox="0 0 480 220" role="img" aria-hidden="true">
  <rect width="480" height="220" rx="24" fill="#e6f0f9"/>
  <ellipse cx="235" cy="192" rx="140" ry="10" fill="#16222e" opacity="0.06"/>
  <rect x="110" y="48" width="240" height="128" rx="14" fill="#ffffff" stroke="#00528f" stroke-width="5"/>
  <rect x="110" y="48" width="240" height="30" rx="14" fill="#00528f"/>
  <rect x="110" y="63" width="240" height="15" fill="#00528f"/>
  <circle cx="166" cy="120" r="20" fill="#bcd6ea"/>
  <path d="M138 162c5-16 15-25 28-25s23 9 28 25z" fill="#bcd6ea"/>
  <rect x="212" y="100" width="112" height="11" rx="5.5" fill="#00528f" opacity="0.8"/>
  <rect x="212" y="124" width="84" height="11" rx="5.5" fill="#bcd6ea"/>
  <rect x="212" y="148" width="98" height="11" rx="5.5" fill="#bcd6ea"/>
  <circle cx="352" cy="72" r="30" fill="#15803d"/>
  <rect x="339" y="67" width="26" height="20" rx="5" fill="#ffffff"/>
  <path d="M344 67v-6a8 8 0 0 1 16 0v6" fill="none" stroke="#ffffff" stroke-width="5" stroke-linecap="round"/>
</svg>
