<svg xmlns="http://www.w3.org/2000/svg" viewBox="0 0 480 220" role="img" aria-hidden="true">
  <rect width="480" height="220" rx="24" fill="#e6f0f9"/>
  <ellipse cx="240" cy="192" rx="110" ry="10" fill="#16222e" opacity="0.06"/>
  <path d="M240 26l80 28v50c0 48-32 80-80 96-48-16-80-48-80-96V54l80-28z" fill="#00528f"/>
  <path d="M240 40l66 23v41c0 40-26 66-66 80-40-14-66-40-66-80V63l66-23z" fill="#ffffff"/>
  <rect x="212" y="102" width="56" height="46" rx="10" fill="#00528f"/>
  <path d="M222 102V88a18 18 0 0 1 36 0v14" fill="none" stroke="#00528f" stroke-width="9" stroke-linecap="round"/>
  <circle cx="240" cy="121" r="6.5" fill="#ffffff"/>
  <rect x="236.5" y="124" width="7" height="13" rx="3.5" fill="#ffffff"/>
</svg>
